<mxfile host="app.diagrams.net" modified="2023-10-02T07:39:34.050Z" agent="Mozilla/5.0 (Windows NT 10.0; Win64; x64) AppleWebKit/537.36 (KHTML, like Gecko) Chrome/117.0.0.0 Safari/537.36 Edg/117.0.2045.36" etag="vla--rR0XLiMb8aJ58LC" version="22.0.0" type="github">
  <diagram name="Page-1" id="xTfdQ4U6YHgr5Ohzd5CC">
    <mxGraphModel dx="1386" dy="905" grid="1" gridSize="10" guides="1" tooltips="1" connect="1" arrows="1" fold="1" page="1" pageScale="1" pageWidth="700" pageHeight="800" background="#FFFFFF" math="0" shadow="0">
      <root>
        <mxCell id="0" />
        <mxCell id="1" parent="0" />
        <mxCell id="SLhTDTClX1HCQNrHHvle-1" value="Start" style="ellipse;whiteSpace=wrap;html=1;aspect=fixed;" parent="1" vertex="1">
          <mxGeometry x="124" y="223" width="40" height="40" as="geometry" />
        </mxCell>
        <mxCell id="SLhTDTClX1HCQNrHHvle-6" value="{" style="ellipse;whiteSpace=wrap;html=1;aspect=fixed;" parent="1" vertex="1">
          <mxGeometry x="124" y="283" width="40" height="40" as="geometry" />
        </mxCell>
        <mxCell id="SLhTDTClX1HCQNrHHvle-7" value="&quot;" style="ellipse;whiteSpace=wrap;html=1;aspect=fixed;fillColor=#97D077;" parent="1" vertex="1">
          <mxGeometry x="124" y="343" width="40" height="40" as="geometry" />
        </mxCell>
        <mxCell id="SLhTDTClX1HCQNrHHvle-8" value="f" style="ellipse;whiteSpace=wrap;html=1;aspect=fixed;fillColor=#D5E8D4;" parent="1" vertex="1">
          <mxGeometry x="31" y="403" width="40" height="40" as="geometry" />
        </mxCell>
        <mxCell id="SLhTDTClX1HCQNrHHvle-9" value="&lt;font face=&quot;Times New Roman&quot;&gt;l&lt;/font&gt;" style="ellipse;whiteSpace=wrap;html=1;aspect=fixed;fillColor=#D5E8D4;" parent="1" vertex="1">
          <mxGeometry x="91" y="403" width="40" height="40" as="geometry" />
        </mxCell>
        <mxCell id="SLhTDTClX1HCQNrHHvle-10" value="n" style="ellipse;whiteSpace=wrap;html=1;aspect=fixed;fillColor=#D5E8D4;" parent="1" vertex="1">
          <mxGeometry x="151" y="403" width="40" height="40" as="geometry" />
        </mxCell>
        <mxCell id="SLhTDTClX1HCQNrHHvle-11" value="y" style="ellipse;whiteSpace=wrap;html=1;aspect=fixed;fillColor=#D5E8D4;" parent="1" vertex="1">
          <mxGeometry x="208" y="403" width="40" height="40" as="geometry" />
        </mxCell>
        <mxCell id="SLhTDTClX1HCQNrHHvle-12" value="i" style="ellipse;whiteSpace=wrap;html=1;aspect=fixed;fillColor=#D5E8D4;" parent="1" vertex="1">
          <mxGeometry x="31" y="453" width="40" height="40" as="geometry" />
        </mxCell>
        <mxCell id="SLhTDTClX1HCQNrHHvle-13" value="&lt;font face=&quot;Garamond&quot;&gt;a&lt;/font&gt;" style="ellipse;whiteSpace=wrap;html=1;aspect=fixed;fillColor=#D5E8D4;" parent="1" vertex="1">
          <mxGeometry x="91" y="453" width="40" height="40" as="geometry" />
        </mxCell>
        <mxCell id="SLhTDTClX1HCQNrHHvle-14" value="r" style="ellipse;whiteSpace=wrap;html=1;aspect=fixed;fillColor=#D5E8D4;" parent="1" vertex="1">
          <mxGeometry x="31" y="503" width="40" height="40" as="geometry" />
        </mxCell>
        <mxCell id="SLhTDTClX1HCQNrHHvle-15" value="s" style="ellipse;whiteSpace=wrap;html=1;aspect=fixed;fillColor=#D5E8D4;" parent="1" vertex="1">
          <mxGeometry x="31" y="553" width="40" height="40" as="geometry" />
        </mxCell>
        <mxCell id="SLhTDTClX1HCQNrHHvle-16" value="t" style="ellipse;whiteSpace=wrap;html=1;aspect=fixed;fillColor=#D5E8D4;" parent="1" vertex="1">
          <mxGeometry x="31" y="603" width="40" height="40" as="geometry" />
        </mxCell>
        <mxCell id="SLhTDTClX1HCQNrHHvle-17" value="&lt;font face=&quot;Garamond&quot;&gt;s&lt;/font&gt;" style="ellipse;whiteSpace=wrap;html=1;aspect=fixed;fillColor=#D5E8D4;" parent="1" vertex="1">
          <mxGeometry x="91" y="503" width="40" height="40" as="geometry" />
        </mxCell>
        <mxCell id="SLhTDTClX1HCQNrHHvle-18" value="&lt;font face=&quot;Garamond&quot;&gt;t&lt;/font&gt;" style="ellipse;whiteSpace=wrap;html=1;aspect=fixed;fillColor=#D5E8D4;" parent="1" vertex="1">
          <mxGeometry x="91" y="553" width="40" height="40" as="geometry" />
        </mxCell>
        <mxCell id="SLhTDTClX1HCQNrHHvle-19" value="&lt;font face=&quot;Garamond&quot;&gt;_&lt;/font&gt;" style="ellipse;whiteSpace=wrap;html=1;aspect=fixed;" parent="1" vertex="1">
          <mxGeometry x="91" y="603" width="40" height="40" as="geometry" />
        </mxCell>
        <mxCell id="SLhTDTClX1HCQNrHHvle-20" value="u" style="ellipse;whiteSpace=wrap;html=1;aspect=fixed;fillColor=#D5E8D4;" parent="1" vertex="1">
          <mxGeometry x="151" y="453" width="40" height="40" as="geometry" />
        </mxCell>
        <mxCell id="SLhTDTClX1HCQNrHHvle-21" value="m" style="ellipse;whiteSpace=wrap;html=1;aspect=fixed;fillColor=#D5E8D4;" parent="1" vertex="1">
          <mxGeometry x="151" y="503" width="40" height="40" as="geometry" />
        </mxCell>
        <mxCell id="SLhTDTClX1HCQNrHHvle-22" value="_" style="ellipse;whiteSpace=wrap;html=1;aspect=fixed;" parent="1" vertex="1">
          <mxGeometry x="151" y="553" width="40" height="40" as="geometry" />
        </mxCell>
        <mxCell id="SLhTDTClX1HCQNrHHvle-23" value="s" style="ellipse;whiteSpace=wrap;html=1;aspect=fixed;" parent="1" vertex="1">
          <mxGeometry x="151" y="603" width="40" height="40" as="geometry" />
        </mxCell>
        <mxCell id="SLhTDTClX1HCQNrHHvle-24" value="e" style="ellipse;whiteSpace=wrap;html=1;aspect=fixed;fillColor=#D5E8D4;" parent="1" vertex="1">
          <mxGeometry x="208" y="453" width="40" height="40" as="geometry" />
        </mxCell>
        <mxCell id="SLhTDTClX1HCQNrHHvle-25" value="a" style="ellipse;whiteSpace=wrap;html=1;aspect=fixed;fillColor=#D5E8D4;" parent="1" vertex="1">
          <mxGeometry x="207" y="503" width="40" height="40" as="geometry" />
        </mxCell>
        <mxCell id="SLhTDTClX1HCQNrHHvle-26" value="r" style="ellipse;whiteSpace=wrap;html=1;aspect=fixed;fillColor=#D5E8D4;" parent="1" vertex="1">
          <mxGeometry x="207" y="553" width="40" height="40" as="geometry" />
        </mxCell>
        <mxCell id="SLhTDTClX1HCQNrHHvle-27" value="_" style="ellipse;whiteSpace=wrap;html=1;aspect=fixed;" parent="1" vertex="1">
          <mxGeometry x="207" y="603" width="40" height="40" as="geometry" />
        </mxCell>
        <mxCell id="SLhTDTClX1HCQNrHHvle-28" value="" style="endArrow=none;dashed=1;html=1;dashPattern=1 3;strokeWidth=2;rounded=0;" parent="1" edge="1">
          <mxGeometry width="50" height="50" relative="1" as="geometry">
            <mxPoint x="51" y="680" as="sourcePoint" />
            <mxPoint x="51" y="653" as="targetPoint" />
          </mxGeometry>
        </mxCell>
        <mxCell id="SLhTDTClX1HCQNrHHvle-29" value="" style="endArrow=none;dashed=1;html=1;dashPattern=1 3;strokeWidth=2;rounded=0;" parent="1" edge="1">
          <mxGeometry width="50" height="50" relative="1" as="geometry">
            <mxPoint x="110" y="680" as="sourcePoint" />
            <mxPoint x="110" y="652" as="targetPoint" />
          </mxGeometry>
        </mxCell>
        <mxCell id="SLhTDTClX1HCQNrHHvle-30" value="" style="endArrow=none;dashed=1;html=1;dashPattern=1 3;strokeWidth=2;rounded=0;" parent="1" edge="1">
          <mxGeometry width="50" height="50" relative="1" as="geometry">
            <mxPoint x="172" y="680" as="sourcePoint" />
            <mxPoint x="172" y="652" as="targetPoint" />
          </mxGeometry>
        </mxCell>
        <mxCell id="SLhTDTClX1HCQNrHHvle-31" value="" style="endArrow=none;dashed=1;html=1;dashPattern=1 3;strokeWidth=2;rounded=0;" parent="1" edge="1">
          <mxGeometry width="50" height="50" relative="1" as="geometry">
            <mxPoint x="228" y="680" as="sourcePoint" />
            <mxPoint x="228" y="651" as="targetPoint" />
          </mxGeometry>
        </mxCell>
        <mxCell id="SLhTDTClX1HCQNrHHvle-32" value="" style="endArrow=none;html=1;rounded=0;entryX=0.5;entryY=1;entryDx=0;entryDy=0;exitX=0.5;exitY=0;exitDx=0;exitDy=0;" parent="1" source="SLhTDTClX1HCQNrHHvle-6" target="SLhTDTClX1HCQNrHHvle-1" edge="1">
          <mxGeometry width="50" height="50" relative="1" as="geometry">
            <mxPoint x="377" y="503" as="sourcePoint" />
            <mxPoint x="427" y="453" as="targetPoint" />
          </mxGeometry>
        </mxCell>
        <mxCell id="SLhTDTClX1HCQNrHHvle-33" value="" style="endArrow=none;html=1;rounded=0;entryX=0.5;entryY=1;entryDx=0;entryDy=0;exitX=0.5;exitY=0;exitDx=0;exitDy=0;" parent="1" source="SLhTDTClX1HCQNrHHvle-7" target="SLhTDTClX1HCQNrHHvle-6" edge="1">
          <mxGeometry width="50" height="50" relative="1" as="geometry">
            <mxPoint x="180" y="293" as="sourcePoint" />
            <mxPoint x="180" y="273" as="targetPoint" />
          </mxGeometry>
        </mxCell>
        <mxCell id="SLhTDTClX1HCQNrHHvle-34" value="" style="endArrow=none;html=1;rounded=0;entryX=0.5;entryY=1;entryDx=0;entryDy=0;exitX=0.5;exitY=0;exitDx=0;exitDy=0;" parent="1" source="SLhTDTClX1HCQNrHHvle-9" target="SLhTDTClX1HCQNrHHvle-7" edge="1">
          <mxGeometry width="50" height="50" relative="1" as="geometry">
            <mxPoint x="164" y="303" as="sourcePoint" />
            <mxPoint x="164" y="283" as="targetPoint" />
          </mxGeometry>
        </mxCell>
        <mxCell id="SLhTDTClX1HCQNrHHvle-35" value="" style="endArrow=none;html=1;rounded=0;exitX=0.5;exitY=0;exitDx=0;exitDy=0;" parent="1" source="SLhTDTClX1HCQNrHHvle-8" edge="1">
          <mxGeometry width="50" height="50" relative="1" as="geometry">
            <mxPoint x="121" y="413" as="sourcePoint" />
            <mxPoint x="137" y="383" as="targetPoint" />
          </mxGeometry>
        </mxCell>
        <mxCell id="SLhTDTClX1HCQNrHHvle-36" value="" style="endArrow=none;html=1;rounded=0;entryX=0.5;entryY=1;entryDx=0;entryDy=0;exitX=0.5;exitY=0;exitDx=0;exitDy=0;" parent="1" source="SLhTDTClX1HCQNrHHvle-10" target="SLhTDTClX1HCQNrHHvle-7" edge="1">
          <mxGeometry width="50" height="50" relative="1" as="geometry">
            <mxPoint x="121" y="413" as="sourcePoint" />
            <mxPoint x="154" y="393" as="targetPoint" />
          </mxGeometry>
        </mxCell>
        <mxCell id="SLhTDTClX1HCQNrHHvle-37" value="" style="endArrow=none;html=1;rounded=0;exitX=0.5;exitY=0;exitDx=0;exitDy=0;" parent="1" source="SLhTDTClX1HCQNrHHvle-11" edge="1">
          <mxGeometry width="50" height="50" relative="1" as="geometry">
            <mxPoint x="131" y="423" as="sourcePoint" />
            <mxPoint x="147" y="383" as="targetPoint" />
          </mxGeometry>
        </mxCell>
        <mxCell id="SLhTDTClX1HCQNrHHvle-38" value="" style="endArrow=none;html=1;rounded=0;entryX=0.5;entryY=1;entryDx=0;entryDy=0;exitX=0.5;exitY=0;exitDx=0;exitDy=0;" parent="1" source="SLhTDTClX1HCQNrHHvle-12" target="SLhTDTClX1HCQNrHHvle-8" edge="1">
          <mxGeometry width="50" height="50" relative="1" as="geometry">
            <mxPoint x="141" y="433" as="sourcePoint" />
            <mxPoint x="174" y="413" as="targetPoint" />
          </mxGeometry>
        </mxCell>
        <mxCell id="SLhTDTClX1HCQNrHHvle-39" value="" style="endArrow=none;html=1;rounded=0;entryX=0.5;entryY=1;entryDx=0;entryDy=0;exitX=0.5;exitY=0;exitDx=0;exitDy=0;" parent="1" source="SLhTDTClX1HCQNrHHvle-13" target="SLhTDTClX1HCQNrHHvle-9" edge="1">
          <mxGeometry width="50" height="50" relative="1" as="geometry">
            <mxPoint x="151" y="443" as="sourcePoint" />
            <mxPoint x="184" y="423" as="targetPoint" />
          </mxGeometry>
        </mxCell>
        <mxCell id="SLhTDTClX1HCQNrHHvle-41" value="" style="endArrow=none;html=1;rounded=0;entryX=0.5;entryY=1;entryDx=0;entryDy=0;exitX=0.5;exitY=0;exitDx=0;exitDy=0;" parent="1" source="SLhTDTClX1HCQNrHHvle-20" target="SLhTDTClX1HCQNrHHvle-10" edge="1">
          <mxGeometry width="50" height="50" relative="1" as="geometry">
            <mxPoint x="377" y="503" as="sourcePoint" />
            <mxPoint x="427" y="453" as="targetPoint" />
          </mxGeometry>
        </mxCell>
        <mxCell id="SLhTDTClX1HCQNrHHvle-42" value="" style="endArrow=none;html=1;rounded=0;entryX=0.5;entryY=1;entryDx=0;entryDy=0;exitX=0.5;exitY=0;exitDx=0;exitDy=0;" parent="1" source="SLhTDTClX1HCQNrHHvle-24" target="SLhTDTClX1HCQNrHHvle-11" edge="1">
          <mxGeometry width="50" height="50" relative="1" as="geometry">
            <mxPoint x="171" y="463" as="sourcePoint" />
            <mxPoint x="204" y="443" as="targetPoint" />
          </mxGeometry>
        </mxCell>
        <mxCell id="SLhTDTClX1HCQNrHHvle-43" value="" style="endArrow=none;html=1;rounded=0;entryX=0.5;entryY=1;entryDx=0;entryDy=0;exitX=0.5;exitY=0;exitDx=0;exitDy=0;" parent="1" source="SLhTDTClX1HCQNrHHvle-14" target="SLhTDTClX1HCQNrHHvle-12" edge="1">
          <mxGeometry width="50" height="50" relative="1" as="geometry">
            <mxPoint x="181" y="473" as="sourcePoint" />
            <mxPoint x="214" y="453" as="targetPoint" />
          </mxGeometry>
        </mxCell>
        <mxCell id="SLhTDTClX1HCQNrHHvle-44" value="" style="endArrow=none;html=1;rounded=0;entryX=0.5;entryY=1;entryDx=0;entryDy=0;exitX=0.5;exitY=0;exitDx=0;exitDy=0;" parent="1" source="SLhTDTClX1HCQNrHHvle-17" target="SLhTDTClX1HCQNrHHvle-13" edge="1">
          <mxGeometry width="50" height="50" relative="1" as="geometry">
            <mxPoint x="191" y="483" as="sourcePoint" />
            <mxPoint x="224" y="463" as="targetPoint" />
          </mxGeometry>
        </mxCell>
        <mxCell id="SLhTDTClX1HCQNrHHvle-45" value="" style="endArrow=none;html=1;rounded=0;entryX=0.5;entryY=1;entryDx=0;entryDy=0;exitX=0.5;exitY=0;exitDx=0;exitDy=0;" parent="1" source="SLhTDTClX1HCQNrHHvle-21" target="SLhTDTClX1HCQNrHHvle-20" edge="1">
          <mxGeometry width="50" height="50" relative="1" as="geometry">
            <mxPoint x="201" y="493" as="sourcePoint" />
            <mxPoint x="234" y="473" as="targetPoint" />
          </mxGeometry>
        </mxCell>
        <mxCell id="SLhTDTClX1HCQNrHHvle-46" value="" style="endArrow=none;html=1;rounded=0;exitX=0.5;exitY=0;exitDx=0;exitDy=0;" parent="1" source="SLhTDTClX1HCQNrHHvle-25" edge="1">
          <mxGeometry width="50" height="50" relative="1" as="geometry">
            <mxPoint x="211" y="503" as="sourcePoint" />
            <mxPoint x="227" y="493" as="targetPoint" />
          </mxGeometry>
        </mxCell>
        <mxCell id="SLhTDTClX1HCQNrHHvle-47" value="" style="endArrow=none;html=1;rounded=0;entryX=0.5;entryY=1;entryDx=0;entryDy=0;exitX=0.5;exitY=0;exitDx=0;exitDy=0;" parent="1" source="SLhTDTClX1HCQNrHHvle-15" target="SLhTDTClX1HCQNrHHvle-14" edge="1">
          <mxGeometry width="50" height="50" relative="1" as="geometry">
            <mxPoint x="61" y="513" as="sourcePoint" />
            <mxPoint x="61" y="503" as="targetPoint" />
          </mxGeometry>
        </mxCell>
        <mxCell id="SLhTDTClX1HCQNrHHvle-49" value="" style="endArrow=none;html=1;rounded=0;entryX=0.5;entryY=1;entryDx=0;entryDy=0;exitX=0.5;exitY=0;exitDx=0;exitDy=0;" parent="1" source="SLhTDTClX1HCQNrHHvle-18" target="SLhTDTClX1HCQNrHHvle-17" edge="1">
          <mxGeometry width="50" height="50" relative="1" as="geometry">
            <mxPoint x="377" y="503" as="sourcePoint" />
            <mxPoint x="427" y="453" as="targetPoint" />
          </mxGeometry>
        </mxCell>
        <mxCell id="SLhTDTClX1HCQNrHHvle-50" value="" style="endArrow=none;html=1;rounded=0;entryX=0.5;entryY=1;entryDx=0;entryDy=0;exitX=0.5;exitY=0;exitDx=0;exitDy=0;" parent="1" source="SLhTDTClX1HCQNrHHvle-22" target="SLhTDTClX1HCQNrHHvle-21" edge="1">
          <mxGeometry width="50" height="50" relative="1" as="geometry">
            <mxPoint x="377" y="503" as="sourcePoint" />
            <mxPoint x="427" y="453" as="targetPoint" />
          </mxGeometry>
        </mxCell>
        <mxCell id="SLhTDTClX1HCQNrHHvle-51" value="" style="endArrow=none;html=1;rounded=0;entryX=0.5;entryY=1;entryDx=0;entryDy=0;exitX=0.5;exitY=0;exitDx=0;exitDy=0;" parent="1" source="SLhTDTClX1HCQNrHHvle-26" target="SLhTDTClX1HCQNrHHvle-25" edge="1">
          <mxGeometry width="50" height="50" relative="1" as="geometry">
            <mxPoint x="377" y="503" as="sourcePoint" />
            <mxPoint x="427" y="453" as="targetPoint" />
          </mxGeometry>
        </mxCell>
        <mxCell id="SLhTDTClX1HCQNrHHvle-52" value="" style="endArrow=none;html=1;rounded=0;entryX=0.5;entryY=1;entryDx=0;entryDy=0;exitX=0.5;exitY=0;exitDx=0;exitDy=0;" parent="1" source="SLhTDTClX1HCQNrHHvle-16" target="SLhTDTClX1HCQNrHHvle-15" edge="1">
          <mxGeometry width="50" height="50" relative="1" as="geometry">
            <mxPoint x="377" y="503" as="sourcePoint" />
            <mxPoint x="427" y="453" as="targetPoint" />
          </mxGeometry>
        </mxCell>
        <mxCell id="SLhTDTClX1HCQNrHHvle-53" value="" style="endArrow=none;html=1;rounded=0;entryX=0.5;entryY=1;entryDx=0;entryDy=0;exitX=0.5;exitY=0;exitDx=0;exitDy=0;" parent="1" source="SLhTDTClX1HCQNrHHvle-19" target="SLhTDTClX1HCQNrHHvle-18" edge="1">
          <mxGeometry width="50" height="50" relative="1" as="geometry">
            <mxPoint x="377" y="503" as="sourcePoint" />
            <mxPoint x="427" y="453" as="targetPoint" />
          </mxGeometry>
        </mxCell>
        <mxCell id="SLhTDTClX1HCQNrHHvle-54" value="" style="endArrow=none;html=1;rounded=0;entryX=0.5;entryY=1;entryDx=0;entryDy=0;exitX=0.5;exitY=0;exitDx=0;exitDy=0;" parent="1" source="SLhTDTClX1HCQNrHHvle-23" target="SLhTDTClX1HCQNrHHvle-22" edge="1">
          <mxGeometry width="50" height="50" relative="1" as="geometry">
            <mxPoint x="377" y="503" as="sourcePoint" />
            <mxPoint x="427" y="453" as="targetPoint" />
          </mxGeometry>
        </mxCell>
        <mxCell id="SLhTDTClX1HCQNrHHvle-55" value="" style="endArrow=none;html=1;rounded=0;entryX=0.5;entryY=1;entryDx=0;entryDy=0;exitX=0.5;exitY=0;exitDx=0;exitDy=0;" parent="1" source="SLhTDTClX1HCQNrHHvle-27" target="SLhTDTClX1HCQNrHHvle-26" edge="1">
          <mxGeometry width="50" height="50" relative="1" as="geometry">
            <mxPoint x="377" y="503" as="sourcePoint" />
            <mxPoint x="427" y="453" as="targetPoint" />
          </mxGeometry>
        </mxCell>
        <mxCell id="SLhTDTClX1HCQNrHHvle-57" value="Root&lt;br&gt;N/A" style="ellipse;whiteSpace=wrap;html=1;aspect=fixed;fillColor=#97D077;" parent="1" vertex="1">
          <mxGeometry x="518" y="142" width="40" height="40" as="geometry" />
        </mxCell>
        <mxCell id="SLhTDTClX1HCQNrHHvle-58" value="a&lt;br&gt;10" style="ellipse;whiteSpace=wrap;html=1;aspect=fixed;" parent="1" vertex="1">
          <mxGeometry x="406" y="195" width="40" height="40" as="geometry" />
        </mxCell>
        <mxCell id="SLhTDTClX1HCQNrHHvle-59" value="f&lt;br&gt;16" style="ellipse;whiteSpace=wrap;html=1;aspect=fixed;fillColor=#D5E8D4;" parent="1" vertex="1">
          <mxGeometry x="475" y="195" width="40" height="40" as="geometry" />
        </mxCell>
        <mxCell id="SLhTDTClX1HCQNrHHvle-60" value="&lt;font face=&quot;Times New Roman&quot;&gt;l&lt;/font&gt;&lt;br&gt;45" style="ellipse;whiteSpace=wrap;html=1;aspect=fixed;fillColor=#D5E8D4;" parent="1" vertex="1">
          <mxGeometry x="555" y="195" width="40" height="40" as="geometry" />
        </mxCell>
        <mxCell id="SLhTDTClX1HCQNrHHvle-61" value="0&lt;br&gt;61" style="ellipse;whiteSpace=wrap;html=1;aspect=fixed;" parent="1" vertex="1">
          <mxGeometry x="631" y="195" width="40" height="40" as="geometry" />
        </mxCell>
        <mxCell id="SLhTDTClX1HCQNrHHvle-62" value="fa&lt;br&gt;120" style="ellipse;whiteSpace=wrap;html=1;aspect=fixed;" parent="1" vertex="1">
          <mxGeometry x="446" y="265" width="40" height="40" as="geometry" />
        </mxCell>
        <mxCell id="SLhTDTClX1HCQNrHHvle-64" value="fi&lt;br&gt;145" style="ellipse;whiteSpace=wrap;html=1;aspect=fixed;fillColor=#D5E8D4;" parent="1" vertex="1">
          <mxGeometry x="507" y="265" width="40" height="40" as="geometry" />
        </mxCell>
        <mxCell id="SLhTDTClX1HCQNrHHvle-66" value="fil&lt;br&gt;590" style="ellipse;whiteSpace=wrap;html=1;aspect=fixed;" parent="1" vertex="1">
          <mxGeometry x="478" y="330" width="40" height="40" as="geometry" />
        </mxCell>
        <mxCell id="SLhTDTClX1HCQNrHHvle-67" value="fir&lt;br&gt;625" style="ellipse;whiteSpace=wrap;html=1;aspect=fixed;fillColor=#D5E8D4;" parent="1" vertex="1">
          <mxGeometry x="548" y="330" width="40" height="40" as="geometry" />
        </mxCell>
        <mxCell id="SLhTDTClX1HCQNrHHvle-68" value="firs&lt;br&gt;N/A" style="ellipse;whiteSpace=wrap;html=1;aspect=fixed;fillColor=#D5E8D4;" parent="1" vertex="1">
          <mxGeometry x="548" y="392" width="40" height="40" as="geometry" />
        </mxCell>
        <mxCell id="SLhTDTClX1HCQNrHHvle-69" value="first&lt;br&gt;1299" style="ellipse;whiteSpace=wrap;html=1;aspect=fixed;fillColor=#D5E8D4;" parent="1" vertex="1">
          <mxGeometry x="548" y="463" width="40" height="40" as="geometry" />
        </mxCell>
        <mxCell id="SLhTDTClX1HCQNrHHvle-70" value="" style="endArrow=none;html=1;rounded=0;entryX=0.5;entryY=1;entryDx=0;entryDy=0;exitX=0.5;exitY=0;exitDx=0;exitDy=0;" parent="1" source="SLhTDTClX1HCQNrHHvle-58" target="SLhTDTClX1HCQNrHHvle-57" edge="1">
          <mxGeometry width="50" height="50" relative="1" as="geometry">
            <mxPoint x="293" y="565" as="sourcePoint" />
            <mxPoint x="343" y="515" as="targetPoint" />
          </mxGeometry>
        </mxCell>
        <mxCell id="SLhTDTClX1HCQNrHHvle-71" value="" style="endArrow=none;html=1;rounded=0;entryX=0.5;entryY=1;entryDx=0;entryDy=0;exitX=0.5;exitY=0;exitDx=0;exitDy=0;" parent="1" source="SLhTDTClX1HCQNrHHvle-59" target="SLhTDTClX1HCQNrHHvle-57" edge="1">
          <mxGeometry width="50" height="50" relative="1" as="geometry">
            <mxPoint x="293" y="565" as="sourcePoint" />
            <mxPoint x="343" y="515" as="targetPoint" />
          </mxGeometry>
        </mxCell>
        <mxCell id="SLhTDTClX1HCQNrHHvle-72" value="" style="endArrow=none;html=1;rounded=0;exitX=0.5;exitY=0;exitDx=0;exitDy=0;entryX=0.5;entryY=1;entryDx=0;entryDy=0;" parent="1" source="SLhTDTClX1HCQNrHHvle-60" target="SLhTDTClX1HCQNrHHvle-57" edge="1">
          <mxGeometry width="50" height="50" relative="1" as="geometry">
            <mxPoint x="505" y="205" as="sourcePoint" />
            <mxPoint x="533" y="185" as="targetPoint" />
          </mxGeometry>
        </mxCell>
        <mxCell id="SLhTDTClX1HCQNrHHvle-73" value="" style="endArrow=none;html=1;rounded=0;exitX=0.5;exitY=0;exitDx=0;exitDy=0;entryX=0.5;entryY=1;entryDx=0;entryDy=0;" parent="1" source="SLhTDTClX1HCQNrHHvle-61" target="SLhTDTClX1HCQNrHHvle-57" edge="1">
          <mxGeometry width="50" height="50" relative="1" as="geometry">
            <mxPoint x="585" y="205" as="sourcePoint" />
            <mxPoint x="548" y="192" as="targetPoint" />
          </mxGeometry>
        </mxCell>
        <mxCell id="SLhTDTClX1HCQNrHHvle-74" value="" style="endArrow=none;html=1;rounded=0;entryX=0.5;entryY=1;entryDx=0;entryDy=0;exitX=0.5;exitY=0;exitDx=0;exitDy=0;" parent="1" source="SLhTDTClX1HCQNrHHvle-62" target="SLhTDTClX1HCQNrHHvle-59" edge="1">
          <mxGeometry width="50" height="50" relative="1" as="geometry">
            <mxPoint x="293" y="565" as="sourcePoint" />
            <mxPoint x="343" y="515" as="targetPoint" />
          </mxGeometry>
        </mxCell>
        <mxCell id="SLhTDTClX1HCQNrHHvle-75" value="" style="endArrow=none;html=1;rounded=0;exitX=0.5;exitY=0;exitDx=0;exitDy=0;" parent="1" source="SLhTDTClX1HCQNrHHvle-64" edge="1">
          <mxGeometry width="50" height="50" relative="1" as="geometry">
            <mxPoint x="293" y="565" as="sourcePoint" />
            <mxPoint x="493" y="235" as="targetPoint" />
          </mxGeometry>
        </mxCell>
        <mxCell id="SLhTDTClX1HCQNrHHvle-76" value="" style="endArrow=none;html=1;rounded=0;entryX=0.5;entryY=1;entryDx=0;entryDy=0;exitX=0.5;exitY=0;exitDx=0;exitDy=0;" parent="1" source="SLhTDTClX1HCQNrHHvle-66" target="SLhTDTClX1HCQNrHHvle-64" edge="1">
          <mxGeometry width="50" height="50" relative="1" as="geometry">
            <mxPoint x="293" y="565" as="sourcePoint" />
            <mxPoint x="343" y="515" as="targetPoint" />
          </mxGeometry>
        </mxCell>
        <mxCell id="SLhTDTClX1HCQNrHHvle-77" value="" style="endArrow=none;html=1;rounded=0;entryX=0.5;entryY=1;entryDx=0;entryDy=0;exitX=0.5;exitY=0;exitDx=0;exitDy=0;" parent="1" source="SLhTDTClX1HCQNrHHvle-67" target="SLhTDTClX1HCQNrHHvle-64" edge="1">
          <mxGeometry width="50" height="50" relative="1" as="geometry">
            <mxPoint x="293" y="565" as="sourcePoint" />
            <mxPoint x="343" y="515" as="targetPoint" />
          </mxGeometry>
        </mxCell>
        <mxCell id="SLhTDTClX1HCQNrHHvle-78" value="" style="endArrow=none;html=1;rounded=0;entryX=0.5;entryY=1;entryDx=0;entryDy=0;exitX=0.5;exitY=0;exitDx=0;exitDy=0;" parent="1" source="SLhTDTClX1HCQNrHHvle-68" target="SLhTDTClX1HCQNrHHvle-67" edge="1">
          <mxGeometry width="50" height="50" relative="1" as="geometry">
            <mxPoint x="293" y="565" as="sourcePoint" />
            <mxPoint x="343" y="515" as="targetPoint" />
          </mxGeometry>
        </mxCell>
        <mxCell id="SLhTDTClX1HCQNrHHvle-79" value="" style="endArrow=none;html=1;rounded=0;entryX=0.5;entryY=1;entryDx=0;entryDy=0;exitX=0.5;exitY=0;exitDx=0;exitDy=0;" parent="1" source="SLhTDTClX1HCQNrHHvle-69" target="SLhTDTClX1HCQNrHHvle-68" edge="1">
          <mxGeometry width="50" height="50" relative="1" as="geometry">
            <mxPoint x="293" y="565" as="sourcePoint" />
            <mxPoint x="343" y="515" as="targetPoint" />
          </mxGeometry>
        </mxCell>
        <mxCell id="SLhTDTClX1HCQNrHHvle-80" value="" style="endArrow=none;dashed=1;html=1;dashPattern=1 3;strokeWidth=2;rounded=0;entryX=1;entryY=0.5;entryDx=0;entryDy=0;exitX=0;exitY=0.5;exitDx=0;exitDy=0;" parent="1" source="SLhTDTClX1HCQNrHHvle-59" target="SLhTDTClX1HCQNrHHvle-58" edge="1">
          <mxGeometry width="50" height="50" relative="1" as="geometry">
            <mxPoint x="293" y="565" as="sourcePoint" />
            <mxPoint x="343" y="515" as="targetPoint" />
          </mxGeometry>
        </mxCell>
        <mxCell id="SLhTDTClX1HCQNrHHvle-81" value="" style="endArrow=none;dashed=1;html=1;dashPattern=1 3;strokeWidth=2;rounded=0;entryX=1;entryY=0.5;entryDx=0;entryDy=0;exitX=0;exitY=0.5;exitDx=0;exitDy=0;" parent="1" source="SLhTDTClX1HCQNrHHvle-60" target="SLhTDTClX1HCQNrHHvle-59" edge="1">
          <mxGeometry width="50" height="50" relative="1" as="geometry">
            <mxPoint x="293" y="565" as="sourcePoint" />
            <mxPoint x="343" y="515" as="targetPoint" />
          </mxGeometry>
        </mxCell>
        <mxCell id="SLhTDTClX1HCQNrHHvle-82" value="" style="endArrow=none;dashed=1;html=1;dashPattern=1 3;strokeWidth=2;rounded=0;entryX=1;entryY=0.5;entryDx=0;entryDy=0;exitX=0;exitY=0.5;exitDx=0;exitDy=0;" parent="1" source="SLhTDTClX1HCQNrHHvle-61" target="SLhTDTClX1HCQNrHHvle-60" edge="1">
          <mxGeometry width="50" height="50" relative="1" as="geometry">
            <mxPoint x="293" y="565" as="sourcePoint" />
            <mxPoint x="343" y="515" as="targetPoint" />
          </mxGeometry>
        </mxCell>
        <mxCell id="SLhTDTClX1HCQNrHHvle-83" value="" style="endArrow=none;dashed=1;html=1;dashPattern=1 3;strokeWidth=2;rounded=0;entryX=0.5;entryY=1;entryDx=0;entryDy=0;" parent="1" target="SLhTDTClX1HCQNrHHvle-58" edge="1">
          <mxGeometry width="50" height="50" relative="1" as="geometry">
            <mxPoint x="426" y="265" as="sourcePoint" />
            <mxPoint x="343" y="515" as="targetPoint" />
          </mxGeometry>
        </mxCell>
        <mxCell id="SLhTDTClX1HCQNrHHvle-84" value="" style="endArrow=none;dashed=1;html=1;dashPattern=1 3;strokeWidth=2;rounded=0;entryX=0.5;entryY=1;entryDx=0;entryDy=0;" parent="1" target="SLhTDTClX1HCQNrHHvle-61" edge="1">
          <mxGeometry width="50" height="50" relative="1" as="geometry">
            <mxPoint x="653" y="275" as="sourcePoint" />
            <mxPoint x="343" y="515" as="targetPoint" />
          </mxGeometry>
        </mxCell>
        <mxCell id="SLhTDTClX1HCQNrHHvle-86" value="" style="endArrow=none;dashed=1;html=1;dashPattern=1 3;strokeWidth=2;rounded=0;entryX=0.5;entryY=1;entryDx=0;entryDy=0;" parent="1" target="SLhTDTClX1HCQNrHHvle-60" edge="1">
          <mxGeometry width="50" height="50" relative="1" as="geometry">
            <mxPoint x="573" y="275" as="sourcePoint" />
            <mxPoint x="343" y="515" as="targetPoint" />
          </mxGeometry>
        </mxCell>
        <mxCell id="SLhTDTClX1HCQNrHHvle-87" value="" style="endArrow=none;dashed=1;html=1;dashPattern=1 3;strokeWidth=2;rounded=0;entryX=0.5;entryY=1;entryDx=0;entryDy=0;" parent="1" target="SLhTDTClX1HCQNrHHvle-62" edge="1">
          <mxGeometry width="50" height="50" relative="1" as="geometry">
            <mxPoint x="466" y="335" as="sourcePoint" />
            <mxPoint x="343" y="515" as="targetPoint" />
          </mxGeometry>
        </mxCell>
        <mxCell id="SLhTDTClX1HCQNrHHvle-88" value="&lt;font style=&quot;font-size: 18px;&quot;&gt;Allowed Tokens at next timestep: [16, 45, 145, 625, 1299, .....]&lt;/font&gt;" style="text;html=1;strokeColor=none;fillColor=none;align=center;verticalAlign=middle;whiteSpace=wrap;rounded=0;" parent="1" vertex="1">
          <mxGeometry x="37" y="732" width="613" height="30" as="geometry" />
        </mxCell>
        <mxCell id="SLhTDTClX1HCQNrHHvle-89" value="" style="endArrow=none;dashed=1;html=1;dashPattern=1 3;strokeWidth=2;rounded=0;entryX=1;entryY=0.5;entryDx=0;entryDy=0;" parent="1" target="SLhTDTClX1HCQNrHHvle-61" edge="1">
          <mxGeometry width="50" height="50" relative="1" as="geometry">
            <mxPoint x="693" y="215" as="sourcePoint" />
            <mxPoint x="343" y="509" as="targetPoint" />
          </mxGeometry>
        </mxCell>
        <mxCell id="SLhTDTClX1HCQNrHHvle-90" value="&lt;font style=&quot;font-size: 24px;&quot;&gt;Character Level Parser&lt;/font&gt;" style="text;html=1;strokeColor=none;fillColor=none;align=center;verticalAlign=middle;whiteSpace=wrap;rounded=0;" parent="1" vertex="1">
          <mxGeometry x="4" y="10" width="296" height="47" as="geometry" />
        </mxCell>
        <mxCell id="SLhTDTClX1HCQNrHHvle-91" value="&lt;font style=&quot;font-size: 24px;&quot;&gt;Tokenizer Prefix Tree&lt;/font&gt;" style="text;html=1;strokeColor=none;fillColor=none;align=center;verticalAlign=middle;whiteSpace=wrap;rounded=0;" parent="1" vertex="1">
          <mxGeometry x="396" y="10" width="296" height="47" as="geometry" />
        </mxCell>
        <mxCell id="SLhTDTClX1HCQNrHHvle-92" value="" style="ellipse;whiteSpace=wrap;html=1;aspect=fixed;fillColor=#97D077;" parent="1" vertex="1">
          <mxGeometry x="542" y="619" width="24" height="24" as="geometry" />
        </mxCell>
        <mxCell id="SLhTDTClX1HCQNrHHvle-93" value="&lt;b&gt;Legend&lt;/b&gt;" style="text;html=1;strokeColor=none;fillColor=none;align=center;verticalAlign=middle;whiteSpace=wrap;rounded=0;" parent="1" vertex="1">
          <mxGeometry x="534" y="589" width="60" height="30" as="geometry" />
        </mxCell>
        <mxCell id="SLhTDTClX1HCQNrHHvle-94" value="Traversal Start Node" style="text;html=1;strokeColor=none;fillColor=none;align=left;verticalAlign=middle;whiteSpace=wrap;rounded=0;" parent="1" vertex="1">
          <mxGeometry x="574" y="616" width="116" height="30" as="geometry" />
        </mxCell>
        <mxCell id="SLhTDTClX1HCQNrHHvle-96" value="" style="ellipse;whiteSpace=wrap;html=1;aspect=fixed;fillColor=#D5E8D4;" parent="1" vertex="1">
          <mxGeometry x="542" y="649" width="24" height="24" as="geometry" />
        </mxCell>
        <mxCell id="SLhTDTClX1HCQNrHHvle-97" value="Visited node" style="text;html=1;strokeColor=none;fillColor=none;align=left;verticalAlign=middle;whiteSpace=wrap;rounded=0;" parent="1" vertex="1">
          <mxGeometry x="575" y="647" width="116" height="30" as="geometry" />
        </mxCell>
        <mxCell id="SLhTDTClX1HCQNrHHvle-99" value="&lt;font style=&quot;font-size: 18px;&quot;&gt;JsonSchemaParser&lt;/font&gt;&lt;br&gt;&lt;div style=&quot;text-align: left;&quot;&gt;&lt;br&gt;&lt;/div&gt;&lt;font style=&quot;font-size: 12px;&quot;&gt;&lt;div style=&quot;text-align: left;&quot;&gt;&lt;span style=&quot;background-color: initial;&quot;&gt;&lt;b&gt;Schema:&lt;br&gt;&lt;/b&gt;first_name: str&lt;/span&gt;&lt;/div&gt;&lt;div style=&quot;text-align: left;&quot;&gt;&lt;span style=&quot;background-color: initial;&quot;&gt;last_name: str&lt;/span&gt;&lt;/div&gt;&lt;div style=&quot;text-align: left;&quot;&gt;&lt;span style=&quot;background-color: initial;&quot;&gt;num_seasons_in_nba: int&lt;/span&gt;&lt;/div&gt;&lt;div style=&quot;text-align: left;&quot;&gt;&lt;span style=&quot;background-color: initial;&quot;&gt;year_of_birth: int&lt;/span&gt;&lt;/div&gt;&lt;/font&gt;&lt;div style=&quot;text-align: left;&quot;&gt;&lt;br&gt;&lt;/div&gt;&lt;b&gt;Current string&lt;/b&gt;: {&quot;" style="text;html=1;strokeColor=none;fillColor=none;align=center;verticalAlign=middle;whiteSpace=wrap;rounded=0;" parent="1" vertex="1">
          <mxGeometry x="3" y="66" width="296" height="150" as="geometry" />
        </mxCell>
        <mxCell id="SLhTDTClX1HCQNrHHvle-100" value="&lt;font style=&quot;font-size: 14px;&quot;&gt;Built from the language model&#39;s tokenizer&lt;/font&gt;" style="text;html=1;strokeColor=none;fillColor=none;align=center;verticalAlign=middle;whiteSpace=wrap;rounded=0;" parent="1" vertex="1">
          <mxGeometry x="393" y="26" width="296" height="150" as="geometry" />
        </mxCell>
        <mxCell id="SLhTDTClX1HCQNrHHvle-108" value="" style="shape=image;html=1;verticalAlign=top;verticalLabelPosition=bottom;labelBackgroundColor=#ffffff;imageAspect=0;aspect=fixed;image=https://cdn1.iconfinder.com/data/icons/business-and-finance-20/200/vector_65_12-128.png" parent="1" vertex="1">
          <mxGeometry x="312" y="6" width="80" height="80" as="geometry" />
        </mxCell>
      </root>
    </mxGraphModel>
  </diagram>
</mxfile>
